<?xml version="1.0" standalone="no"?>
<!DOCTYPE svg PUBLIC "-//W3C//DTD SVG 20010904//EN"
 "http://www.w3.org/TR/2001/REC-SVG-20010904/DTD/svg10.dtd">
<svg version="1.0" xmlns="http://www.w3.org/2000/svg"
 width="400.000000pt" height="400.000000pt" viewBox="0 0 400.000000 400.000000"
 preserveAspectRatio="xMidYMid meet">
<metadata>
Created by potrace 1.14, written by Peter Selinger 2001-2017
</metadata>
<g transform="translate(0.000000,400.000000) scale(0.100000,-0.100000)"
fill="#000000" stroke="none">
<path d="M1545 3083 c-45 -23 -82 -61 -137 -138 -27 -38 -57 -73 -66 -77 -9
-4 -58 -7 -108 -7 l-91 -1 -52 80 c-145 223 -299 194 -442 -85 -31 -61 -66
-136 -79 -168 -17 -43 -27 -56 -39 -53 -27 8 -132 24 -202 31 -54 5 -69 3 -83
-10 -11 -12 -13 -21 -6 -34 7 -14 27 -20 82 -25 40 -4 102 -12 136 -18 58 -9
63 -12 58 -32 -3 -11 -6 -24 -6 -27 0 -3 -52 -9 -115 -12 -149 -8 -200 -31
-159 -71 9 -10 23 -15 31 -12 21 9 213 20 213 13 0 -3 -11 -51 -24 -107 -43
-174 -59 -342 -53 -539 5 -183 17 -248 67 -371 52 -131 165 -258 295 -334 l65
-39 0 -49 c0 -87 42 -138 115 -138 61 0 103 30 117 85 l12 45 138 0 c132 0
138 -1 138 -20 0 -11 7 -36 15 -56 17 -42 71 -69 121 -59 43 8 94 65 94 105
l0 30 178 0 c99 0 234 3 300 7 l122 6 0 -32 c0 -133 175 -167 226 -45 8 19 14
45 14 59 l0 25 129 0 128 0 7 -38 c12 -80 79 -124 151 -100 53 18 77 55 83
125 4 52 9 63 47 103 154 160 282 429 323 676 l17 101 72 32 c144 65 275 167
376 291 71 89 117 180 117 233 0 114 -111 181 -217 131 -20 -10 -74 -64 -133
-133 -106 -126 -207 -211 -248 -211 -5 0 -24 36 -42 80 -40 100 -127 248 -187
318 -99 115 -266 216 -432 259 -77 20 -129 26 -261 30 -157 5 -207 1 -446 -33
-40 -6 -41 -6 -69 42 -38 65 -122 154 -162 170 -42 18 -91 17 -128 -3z m122
-82 c23 -16 67 -68 98 -116 32 -48 64 -89 70 -91 7 -3 52 2 101 10 113 20 114
20 114 -4 0 -34 27 -77 63 -99 71 -44 163 -14 198 63 10 23 19 49 19 59 0 12
8 17 29 17 26 0 29 -3 33 -44 9 -78 63 -126 142 -126 36 0 52 6 81 31 19 17
38 42 41 55 8 30 16 30 81 0 200 -94 345 -268 447 -540 69 -183 59 -410 -28
-651 -65 -178 -185 -372 -272 -442 -34 -28 -36 -32 -38 -97 -2 -71 -11 -86
-54 -86 -26 0 -32 11 -41 83 l-6 52 -189 3 c-130 2 -193 -1 -202 -9 -9 -7 -14
-32 -14 -68 0 -59 -11 -81 -41 -81 -27 0 -44 30 -49 89 l-5 56 -348 3 c-228 1
-355 -1 -367 -8 -16 -8 -20 -21 -20 -60 0 -39 -4 -52 -22 -64 -35 -25 -58 -5
-58 52 0 79 5 77 -210 80 -210 4 -220 1 -220 -52 0 -68 -43 -105 -81 -70 -18
16 -19 26 -13 80 l6 63 -58 29 c-299 151 -416 430 -375 892 16 177 48 327 111
513 83 244 169 409 240 462 51 38 91 34 144 -15 51 -47 116 -164 116 -208 0
-49 9 -62 45 -62 36 0 45 13 45 61 0 16 5 29 10 29 6 0 10 -15 10 -32 0 -37 8
-52 31 -60 29 -11 59 19 59 58 0 19 5 34 10 34 6 0 10 -18 10 -40 0 -38 18
-60 49 -60 22 0 41 33 41 71 0 79 149 269 211 269 9 0 34 -13 56 -29z m2007
-642 c36 -28 66 -54 66 -58 0 -4 -21 -31 -47 -60 l-48 -53 -57 71 -57 70 32
40 c18 22 35 40 38 40 4 1 36 -22 73 -50z m-204 -210 l50 -71 -23 -17 c-30
-23 -96 -61 -106 -61 -10 0 -55 159 -47 167 6 6 70 52 73 53 1 0 25 -32 53
-71z"/>
<path d="M1980 2650 c-140 -24 -195 -59 -156 -98 14 -14 23 -13 104 6 48 12
117 22 153 22 37 0 70 5 77 12 17 17 15 55 -4 62 -21 8 -117 6 -174 -4z"/>
<path d="M1212 2567 c-6 -7 -12 -30 -14 -52 -3 -35 -6 -40 -29 -41 -37 -1 -49
-11 -49 -40 0 -33 42 -50 88 -36 21 7 43 7 66 0 28 -9 40 -8 60 6 27 17 34 50
14 62 -7 5 -25 7 -40 6 -26 -2 -28 0 -28 37 0 57 -41 91 -68 58z"/>
<path d="M875 2535 c-50 -49 -19 -125 50 -125 44 0 75 29 75 70 0 38 -39 80
-75 80 -14 0 -37 -11 -50 -25z"/>
<path d="M1512 2553 c-7 -3 -19 -18 -28 -34 -26 -51 6 -109 60 -109 49 0 76
24 76 69 0 59 -53 96 -108 74z"/>
<path d="M1860 2491 c-28 -8 -42 -57 -18 -66 7 -3 85 -2 173 3 l160 7 0 30 0
30 -145 2 c-80 1 -156 -2 -170 -6z"/>
</g>
</svg>
